<svg width="200" height="209" viewBox="0 0 200 209" fill="none" xmlns="http://www.w3.org/2000/svg">
<g opacity="0.1" filter="url(#filter0_f_215_43658)">
<path d="M127.667 189H41.4443C34.2221 189 28.4443 183.222 28.4443 176V111.222C28.4443 104 34.2221 98.2222 41.4443 98.2222H127.667C134.889 98.2222 140.667 104 140.667 111.222V176C140.667 183.222 134.889 189 127.667 189Z" fill="#6CEBA5"/>
</g>
<path d="M129.889 99.6665C127.778 99.6665 126 97.8887 126 95.7776V59.6665C126 45.7776 114.666 34.4443 100.778 34.4443C86.8887 34.4443 75.5554 45.7776 75.5554 59.6665V95.7776C75.5554 97.8887 73.7776 99.6665 71.6665 99.6665C69.5554 99.6665 67.7776 97.8887 67.7776 95.7776V59.6665C67.7776 41.4443 82.5554 26.6665 100.778 26.6665C119 26.6665 133.778 41.4443 133.778 59.6665V95.7776C133.778 97.9998 132.111 99.6665 129.889 99.6665Z" fill="url(#paint0_linear_215_43658)"/>
<g filter="url(#filter1_bi_215_43658)">
<path d="M143.667 173H57.4443C50.2221 173 44.4443 167.222 44.4443 160V95.2222C44.4443 87.9999 50.2221 82.2222 57.4443 82.2222H143.667C150.889 82.2222 156.667 87.9999 156.667 95.2222V160C156.667 167.222 150.889 173 143.667 173Z" fill="url(#paint1_linear_215_43658)" fill-opacity="0.2"/>
<path d="M57.4443 173.5H143.667C151.165 173.5 157.167 167.498 157.167 160V95.2222C157.167 87.7238 151.165 81.7222 143.667 81.7222H57.4443C49.946 81.7222 43.9443 87.7238 43.9443 95.2222V160C43.9443 167.498 49.946 173.5 57.4443 173.5Z" stroke="url(#paint2_linear_215_43658)" stroke-opacity="0.5"/>
</g>
<path d="M106.666 131.889C109.111 130.111 110.667 127.222 110.667 123.889C110.667 118.333 106.222 113.889 100.667 113.889C95.1109 113.889 90.6665 118.333 90.6665 123.889C90.6665 127.111 92.2221 130 94.6665 131.889L91.1109 143.111C90.5554 144.889 91.8887 146.778 93.7776 146.778H107.778C109.666 146.778 111 145 110.444 143.111L106.666 131.889Z" fill="white"/>
<g opacity="0.5">
<g opacity="0.6">
<path d="M44.5333 159.931C47.7572 159.931 50.3708 137.113 50.3708 108.966C50.3708 80.8181 47.7572 58 44.5333 58C41.3093 58 38.6958 80.8181 38.6958 108.966C38.6958 137.113 41.3093 159.931 44.5333 159.931Z" fill="url(#paint3_radial_215_43658)"/>
<path d="M44.5332 150.614C46.1452 150.614 47.452 131.967 47.452 108.966C47.452 85.9639 46.1452 67.3174 44.5332 67.3174C42.9213 67.3174 41.6145 85.9639 41.6145 108.966C41.6145 131.967 42.9213 150.614 44.5332 150.614Z" fill="url(#paint4_radial_215_43658)"/>
</g>
<path d="M44.5331 95.4946C55.31 95.4946 64.0662 96.3927 64.0662 97.5153C64.0662 98.6379 55.31 99.536 44.5331 99.536C33.7562 99.536 25 98.6379 25 97.5153C25 96.3927 33.7562 95.4946 44.5331 95.4946Z" fill="url(#paint5_radial_215_43658)"/>
<path d="M44.5334 96.73C46.5541 96.73 48.238 97.0668 48.238 97.4035C48.238 97.7403 46.5541 98.0771 44.5334 98.0771C42.5127 98.0771 40.8289 97.7403 40.8289 97.4035C40.9411 97.0668 42.5127 96.73 44.5334 96.73Z" fill="url(#paint6_radial_215_43658)"/>
<path d="M42.4001 97.4034C42.4001 86.851 43.4105 78.207 44.6453 78.207C45.8802 78.207 46.8905 86.7387 46.8905 97.4034C46.8905 108.068 45.8802 116.6 44.6453 116.6C43.4105 116.6 42.4001 108.068 42.4001 97.4034Z" fill="url(#paint7_radial_215_43658)"/>
<path d="M43.8599 97.4023C43.8599 95.3816 44.1966 93.6978 44.6457 93.6978C45.0947 93.6978 45.4315 95.3816 45.4315 97.4023C45.4315 99.423 45.0947 101.107 44.6457 101.107C44.1966 101.107 43.8599 99.423 43.8599 97.4023Z" fill="url(#paint8_radial_215_43658)"/>
<g opacity="0.5">
<path d="M44.5331 95.4946C55.31 95.4946 64.0662 96.3927 64.0662 97.5153C64.0662 98.6379 55.31 99.536 44.5331 99.536C33.7562 99.536 25 98.6379 25 97.5153C25 96.3927 33.7562 95.4946 44.5331 95.4946Z" fill="url(#paint9_radial_215_43658)"/>
<path d="M44.5334 96.73C46.5541 96.73 48.238 97.0668 48.238 97.4035C48.238 97.7403 46.5541 98.0771 44.5334 98.0771C42.5127 98.0771 40.8289 97.7403 40.8289 97.4035C40.9411 97.0668 42.5127 96.73 44.5334 96.73Z" fill="url(#paint10_radial_215_43658)"/>
<path d="M42.4001 97.4034C42.4001 86.851 43.4105 78.207 44.6453 78.207C45.8802 78.207 46.8905 86.7387 46.8905 97.4034C46.8905 108.068 45.8802 116.6 44.6453 116.6C43.4105 116.6 42.4001 108.068 42.4001 97.4034Z" fill="url(#paint11_radial_215_43658)"/>
<path d="M43.8599 97.4023C43.8599 95.3816 44.1966 93.6978 44.6457 93.6978C45.0947 93.6978 45.4315 95.3816 45.4315 97.4023C45.4315 99.423 45.0947 101.107 44.6457 101.107C44.1966 101.107 43.8599 99.423 43.8599 97.4023Z" fill="url(#paint12_radial_215_43658)"/>
</g>
</g>
<g opacity="0.5">
<g opacity="0.6">
<path d="M157.914 186.2C161.138 186.2 163.752 163.382 163.752 135.235C163.752 107.087 161.138 84.269 157.914 84.269C154.69 84.269 152.077 107.087 152.077 135.235C152.077 163.382 154.69 186.2 157.914 186.2Z" fill="url(#paint13_radial_215_43658)"/>
<path d="M157.915 176.884C159.527 176.884 160.833 158.238 160.833 135.236C160.833 112.234 159.527 93.5879 157.915 93.5879C156.303 93.5879 154.996 112.234 154.996 135.236C154.996 158.238 156.303 176.884 157.915 176.884Z" fill="url(#paint14_radial_215_43658)"/>
</g>
<path d="M157.915 148.818C147.138 148.818 138.382 147.92 138.382 146.797C138.382 145.674 147.138 144.776 157.915 144.776C168.692 144.776 177.448 145.674 177.448 146.797C177.448 147.92 168.692 148.818 157.915 148.818Z" fill="url(#paint15_radial_215_43658)"/>
<path d="M157.915 147.471C155.894 147.471 154.21 147.134 154.21 146.798C154.21 146.461 155.894 146.124 157.915 146.124C159.935 146.124 161.619 146.461 161.619 146.798C161.619 147.247 159.935 147.471 157.915 147.471Z" fill="url(#paint16_radial_215_43658)"/>
<path d="M160.16 146.798C160.16 157.35 159.15 165.994 157.915 165.994C156.68 165.994 155.67 157.463 155.67 146.798C155.67 136.246 156.68 127.602 157.915 127.602C159.15 127.714 160.16 136.246 160.16 146.798Z" fill="url(#paint17_radial_215_43658)"/>
<path d="M158.701 146.797C158.701 148.818 158.364 150.501 157.915 150.501C157.466 150.501 157.129 148.818 157.129 146.797C157.129 144.776 157.466 143.092 157.915 143.092C158.364 143.205 158.701 144.776 158.701 146.797Z" fill="url(#paint18_radial_215_43658)"/>
<g opacity="0.5">
<path d="M157.915 148.818C147.138 148.818 138.382 147.92 138.382 146.797C138.382 145.674 147.138 144.776 157.915 144.776C168.692 144.776 177.448 145.674 177.448 146.797C177.448 147.92 168.692 148.818 157.915 148.818Z" fill="url(#paint19_radial_215_43658)"/>
<path d="M157.915 147.471C155.894 147.471 154.21 147.134 154.21 146.798C154.21 146.461 155.894 146.124 157.915 146.124C159.935 146.124 161.619 146.461 161.619 146.798C161.619 147.247 159.935 147.471 157.915 147.471Z" fill="url(#paint20_radial_215_43658)"/>
<path d="M160.16 146.798C160.16 157.35 159.15 165.994 157.915 165.994C156.68 165.994 155.67 157.463 155.67 146.798C155.67 136.246 156.68 127.602 157.915 127.602C159.15 127.714 160.16 136.246 160.16 146.798Z" fill="url(#paint21_radial_215_43658)"/>
<path d="M158.701 146.797C158.701 148.818 158.364 150.501 157.915 150.501C157.466 150.501 157.129 148.818 157.129 146.797C157.129 144.776 157.466 143.092 157.915 143.092C158.364 143.205 158.701 144.776 158.701 146.797Z" fill="url(#paint22_radial_215_43658)"/>
</g>
</g>
<defs>
<filter id="filter0_f_215_43658" x="8.44434" y="78.2222" width="152.222" height="130.778" filterUnits="userSpaceOnUse" color-interpolation-filters="sRGB">
<feFlood flood-opacity="0" result="BackgroundImageFix"/>
<feBlend mode="normal" in="SourceGraphic" in2="BackgroundImageFix" result="shape"/>
<feGaussianBlur stdDeviation="10" result="effect1_foregroundBlur_215_43658"/>
</filter>
<filter id="filter1_bi_215_43658" x="27.4443" y="65.2222" width="146.222" height="124.778" filterUnits="userSpaceOnUse" color-interpolation-filters="sRGB">
<feFlood flood-opacity="0" result="BackgroundImageFix"/>
<feGaussianBlur in="BackgroundImageFix" stdDeviation="8"/>
<feComposite in2="SourceAlpha" operator="in" result="effect1_backgroundBlur_215_43658"/>
<feBlend mode="normal" in="SourceGraphic" in2="effect1_backgroundBlur_215_43658" result="shape"/>
<feColorMatrix in="SourceAlpha" type="matrix" values="0 0 0 0 0 0 0 0 0 0 0 0 0 0 0 0 0 0 127 0" result="hardAlpha"/>
<feOffset dy="4"/>
<feGaussianBlur stdDeviation="2"/>
<feComposite in2="hardAlpha" operator="arithmetic" k2="-1" k3="1"/>
<feColorMatrix type="matrix" values="0 0 0 0 1 0 0 0 0 1 0 0 0 0 1 0 0 0 0.4 0"/>
<feBlend mode="normal" in2="shape" result="effect2_innerShadow_215_43658"/>
</filter>
<linearGradient id="paint0_linear_215_43658" x1="100.778" y1="26.6665" x2="100.778" y2="99.6665" gradientUnits="userSpaceOnUse">
<stop stop-color="#A1EEC3"/>
<stop offset="1" stop-color="#43CC81"/>
</linearGradient>
<linearGradient id="paint1_linear_215_43658" x1="100.589" y1="82.1736" x2="100.589" y2="172.989" gradientUnits="userSpaceOnUse">
<stop stop-color="white" stop-opacity="0.9"/>
<stop offset="0.0433788" stop-color="white" stop-opacity="0.8619"/>
<stop offset="0.455" stop-color="white" stop-opacity="0.5"/>
<stop offset="0.8175" stop-color="#F4F4F4" stop-opacity="0.2074"/>
<stop offset="0.9505" stop-color="#EFEFEF" stop-opacity="0.1"/>
</linearGradient>
<linearGradient id="paint2_linear_215_43658" x1="36.6666" y1="61.1111" x2="167.222" y2="197.222" gradientUnits="userSpaceOnUse">
<stop stop-color="white"/>
<stop offset="1" stop-color="white" stop-opacity="0"/>
</linearGradient>
<radialGradient id="paint3_radial_215_43658" cx="0" cy="0" r="1" gradientUnits="userSpaceOnUse" gradientTransform="translate(44.5865 109.006) rotate(90) scale(50.9361 5.88977)">
<stop stop-color="white" stop-opacity="0.6"/>
<stop offset="1" stop-color="white" stop-opacity="0"/>
</radialGradient>
<radialGradient id="paint4_radial_215_43658" cx="0" cy="0" r="1" gradientUnits="userSpaceOnUse" gradientTransform="translate(44.5859 109.004) rotate(90) scale(41.6042 2.94677)">
<stop stop-color="white"/>
<stop offset="0.1413" stop-color="white" stop-opacity="0.8587"/>
<stop offset="1" stop-color="white" stop-opacity="0"/>
</radialGradient>
<radialGradient id="paint5_radial_215_43658" cx="0" cy="0" r="1" gradientUnits="userSpaceOnUse" gradientTransform="translate(44.5856 97.4559) rotate(-90) scale(1.99278 19.5738)">
<stop stop-color="white"/>
<stop offset="0.0700966" stop-color="white" stop-opacity="0.9299"/>
<stop offset="1" stop-color="white" stop-opacity="0"/>
</radialGradient>
<radialGradient id="paint6_radial_215_43658" cx="0" cy="0" r="1" gradientUnits="userSpaceOnUse" gradientTransform="translate(44.5862 97.4568) rotate(-90) scale(0.690657 3.66201)">
<stop stop-color="white"/>
<stop offset="0.0700966" stop-color="white" stop-opacity="0.9299"/>
<stop offset="1" stop-color="white" stop-opacity="0"/>
</radialGradient>
<radialGradient id="paint7_radial_215_43658" cx="0" cy="0" r="1" gradientUnits="userSpaceOnUse" gradientTransform="translate(44.5858 97.4559) rotate(180) scale(2.22834 19.1569)">
<stop stop-color="white"/>
<stop offset="0.0700966" stop-color="white" stop-opacity="0.9299"/>
<stop offset="1" stop-color="white" stop-opacity="0"/>
</radialGradient>
<radialGradient id="paint8_radial_215_43658" cx="0" cy="0" r="1" gradientUnits="userSpaceOnUse" gradientTransform="translate(44.586 97.4553) rotate(180) scale(0.772314 3.66201)">
<stop stop-color="white"/>
<stop offset="0.0700966" stop-color="white" stop-opacity="0.9299"/>
<stop offset="1" stop-color="white" stop-opacity="0"/>
</radialGradient>
<radialGradient id="paint9_radial_215_43658" cx="0" cy="0" r="1" gradientUnits="userSpaceOnUse" gradientTransform="translate(44.5856 97.4559) rotate(-90) scale(1.99278 19.5738)">
<stop stop-color="white"/>
<stop offset="0.0700966" stop-color="white" stop-opacity="0.9299"/>
<stop offset="1" stop-color="white" stop-opacity="0"/>
</radialGradient>
<radialGradient id="paint10_radial_215_43658" cx="0" cy="0" r="1" gradientUnits="userSpaceOnUse" gradientTransform="translate(44.5862 97.4568) rotate(-90) scale(0.690657 3.66201)">
<stop stop-color="white"/>
<stop offset="0.0700966" stop-color="white" stop-opacity="0.9299"/>
<stop offset="1" stop-color="white" stop-opacity="0"/>
</radialGradient>
<radialGradient id="paint11_radial_215_43658" cx="0" cy="0" r="1" gradientUnits="userSpaceOnUse" gradientTransform="translate(44.5858 97.4559) rotate(180) scale(2.22834 19.1569)">
<stop stop-color="white"/>
<stop offset="0.0700966" stop-color="white" stop-opacity="0.9299"/>
<stop offset="1" stop-color="white" stop-opacity="0"/>
</radialGradient>
<radialGradient id="paint12_radial_215_43658" cx="0" cy="0" r="1" gradientUnits="userSpaceOnUse" gradientTransform="translate(44.586 97.4553) rotate(180) scale(0.772314 3.66201)">
<stop stop-color="white"/>
<stop offset="0.0700966" stop-color="white" stop-opacity="0.9299"/>
<stop offset="1" stop-color="white" stop-opacity="0"/>
</radialGradient>
<radialGradient id="paint13_radial_215_43658" cx="0" cy="0" r="1" gradientUnits="userSpaceOnUse" gradientTransform="translate(157.928 135.28) rotate(-90) scale(50.9361 5.88977)">
<stop stop-color="white" stop-opacity="0.6"/>
<stop offset="1" stop-color="white" stop-opacity="0"/>
</radialGradient>
<radialGradient id="paint14_radial_215_43658" cx="0" cy="0" r="1" gradientUnits="userSpaceOnUse" gradientTransform="translate(157.928 135.28) rotate(-90) scale(41.6042 2.94677)">
<stop stop-color="white"/>
<stop offset="0.1413" stop-color="white" stop-opacity="0.8587"/>
<stop offset="1" stop-color="white" stop-opacity="0"/>
</radialGradient>
<radialGradient id="paint15_radial_215_43658" cx="0" cy="0" r="1" gradientUnits="userSpaceOnUse" gradientTransform="translate(157.93 146.828) rotate(90) scale(1.99278 19.5738)">
<stop stop-color="white"/>
<stop offset="0.0700966" stop-color="white" stop-opacity="0.9299"/>
<stop offset="1" stop-color="white" stop-opacity="0"/>
</radialGradient>
<radialGradient id="paint16_radial_215_43658" cx="0" cy="0" r="1" gradientUnits="userSpaceOnUse" gradientTransform="translate(157.929 146.828) rotate(90) scale(0.690653 3.662)">
<stop stop-color="white"/>
<stop offset="0.0700966" stop-color="white" stop-opacity="0.9299"/>
<stop offset="1" stop-color="white" stop-opacity="0"/>
</radialGradient>
<radialGradient id="paint17_radial_215_43658" cx="0" cy="0" r="1" gradientUnits="userSpaceOnUse" gradientTransform="translate(157.93 146.828) scale(2.22834 19.1569)">
<stop stop-color="white"/>
<stop offset="0.0700966" stop-color="white" stop-opacity="0.9299"/>
<stop offset="1" stop-color="white" stop-opacity="0"/>
</radialGradient>
<radialGradient id="paint18_radial_215_43658" cx="0" cy="0" r="1" gradientUnits="userSpaceOnUse" gradientTransform="translate(157.93 146.827) scale(0.772323 3.66201)">
<stop stop-color="white"/>
<stop offset="0.0700966" stop-color="white" stop-opacity="0.9299"/>
<stop offset="1" stop-color="white" stop-opacity="0"/>
</radialGradient>
<radialGradient id="paint19_radial_215_43658" cx="0" cy="0" r="1" gradientUnits="userSpaceOnUse" gradientTransform="translate(157.93 146.828) rotate(90) scale(1.99278 19.5738)">
<stop stop-color="white"/>
<stop offset="0.0700966" stop-color="white" stop-opacity="0.9299"/>
<stop offset="1" stop-color="white" stop-opacity="0"/>
</radialGradient>
<radialGradient id="paint20_radial_215_43658" cx="0" cy="0" r="1" gradientUnits="userSpaceOnUse" gradientTransform="translate(157.929 146.828) rotate(90) scale(0.690653 3.662)">
<stop stop-color="white"/>
<stop offset="0.0700966" stop-color="white" stop-opacity="0.9299"/>
<stop offset="1" stop-color="white" stop-opacity="0"/>
</radialGradient>
<radialGradient id="paint21_radial_215_43658" cx="0" cy="0" r="1" gradientUnits="userSpaceOnUse" gradientTransform="translate(157.93 146.828) scale(2.22834 19.1569)">
<stop stop-color="white"/>
<stop offset="0.0700966" stop-color="white" stop-opacity="0.9299"/>
<stop offset="1" stop-color="white" stop-opacity="0"/>
</radialGradient>
<radialGradient id="paint22_radial_215_43658" cx="0" cy="0" r="1" gradientUnits="userSpaceOnUse" gradientTransform="translate(157.93 146.827) scale(0.772323 3.66201)">
<stop stop-color="white"/>
<stop offset="0.0700966" stop-color="white" stop-opacity="0.9299"/>
<stop offset="1" stop-color="white" stop-opacity="0"/>
</radialGradient>
</defs>
</svg>
