<svg width="208" height="214" viewBox="0 0 208 214" fill="none" xmlns="http://www.w3.org/2000/svg">
<g opacity="0.1" filter="url(#filter0_f_215_43814)">
<path d="M72.9796 192.333C71.7574 191.889 42.9797 179.778 29.313 144.444C15.8685 109.556 20.8686 86.1111 21.0908 85.2222L21.9796 81L26.2019 80.3333C27.8685 80.1111 33.2019 78.6667 35.7574 76C38.6463 73 39.5352 70.6667 39.7574 70.1111L40.6463 65L45.8685 65.3333H110.091L110.869 70.1111C111.091 70.5556 111.98 72.8889 114.869 76C117.535 78.7778 123.091 80.1111 124.424 80.3333L128.646 81L129.535 85.2222C129.757 86.2222 134.646 109.667 121.313 144.444C107.646 179.889 78.8685 191.889 77.6463 192.333L75.313 193.333L72.9796 192.333Z" fill="#6CEBA5"/>
</g>
<path d="M137.98 105.778C160.746 105.778 179.202 87.3221 179.202 64.5557C179.202 41.7893 160.746 23.3335 137.98 23.3335C115.213 23.3335 96.7576 41.7893 96.7576 64.5557C96.7576 87.3221 115.213 105.778 137.98 105.778Z" fill="url(#paint0_linear_215_43814)"/>
<g filter="url(#filter1_bi_215_43814)">
<path d="M89.8686 175.556C88.6463 175.111 59.8686 163 46.2019 127.667C32.7575 92.7777 37.7575 69.3333 37.9797 68.4444L38.8686 64.2222L43.0908 63.5555C44.7574 63.3333 50.0908 61.8888 52.6463 59.2222C55.5352 56.2222 56.4241 53.8888 56.6463 53.3333L57.5352 48.2222L62.7575 48.5555H126.98L127.757 53.3333C127.98 53.7777 128.869 56.1111 131.757 59.2222C134.424 61.9999 139.98 63.3333 141.313 63.5555L145.535 64.2222L146.424 68.4444C146.646 69.4444 151.535 92.8888 138.202 127.667C124.535 163.111 95.7575 175.111 94.5352 175.556L92.2019 176.555L89.8686 175.556Z" fill="url(#paint1_linear_215_43814)" fill-opacity="0.1"/>
<path d="M45.7353 127.846L45.7356 127.847C59.4279 163.247 88.207 175.472 89.6836 176.02L92.0049 177.015L92.2019 177.099L92.3989 177.015L94.7201 176.02C96.1951 175.473 124.976 163.358 138.668 127.846L138.669 127.846C152.033 92.986 147.159 69.4488 146.913 68.3388C146.913 68.3378 146.912 68.3369 146.912 68.3359L146.025 64.1192L145.954 63.782L145.613 63.7283L141.395 63.0623C141.395 63.0622 141.394 63.0621 141.393 63.062C140.756 62.9555 139.066 62.5748 137.211 61.879C135.344 61.179 133.375 60.1841 132.121 58.8787C129.592 56.1545 128.637 54.0547 128.3 53.3149C128.277 53.2642 128.257 53.2199 128.239 53.1822L127.473 48.4752L127.405 48.0555H126.98H62.7734L57.5671 47.7232L57.1195 47.6946L57.0426 48.1365L56.1626 53.1964C55.923 53.7989 55.0338 56.0221 52.2862 58.8753L52.2853 58.8762C51.0835 60.1303 49.1928 61.126 47.3543 61.8394C45.5227 62.5502 43.8115 62.955 43.0247 63.0599L43.0247 63.0597L43.0128 63.0616L38.7906 63.7283L38.4503 63.782L38.3793 64.1192L37.4922 68.3329C37.2203 69.4432 32.2905 92.9565 45.7353 127.846Z" stroke="url(#paint2_linear_215_43814)" stroke-opacity="0.5"/>
</g>
<path d="M140.313 69.6667C140.313 69.6667 131.869 68.3334 127.202 63.4445C122.535 58.5556 121.646 54.7778 121.646 54.7778H62.6463C62.6463 54.7778 61.7575 58.5556 57.0908 63.4445C52.4241 68.3334 43.9797 69.6667 43.9797 69.6667C43.9797 69.6667 39.0908 91.8889 51.9797 125.333C64.7574 158.667 91.8686 169.556 92.0908 169.667C92.0908 169.667 119.424 158.667 132.313 125.333C145.202 91.7778 140.313 69.6667 140.313 69.6667Z" fill="url(#paint3_linear_215_43814)" fill-opacity="0.1" stroke="white" stroke-miterlimit="10" stroke-linecap="round" stroke-linejoin="round"/>
<path d="M89.6464 129.444C88.5353 129.444 87.5353 129 86.7575 128.222L71.5352 113.333C69.8686 111.778 69.8686 109.111 71.4241 107.444C72.9797 105.778 75.6464 105.778 77.313 107.333L88.8686 118.556L111.646 81.8889C112.869 79.8889 115.424 79.3334 117.424 80.5556C119.424 81.7778 119.98 84.3334 118.757 86.3334L93.2019 127.333C92.5352 128.444 91.4242 129.111 90.2019 129.222C89.9797 129.444 89.8686 129.444 89.6464 129.444Z" fill="white"/>
<g opacity="0.5">
<path d="M57.2019 51.3332C49.7574 43.8888 44.4241 37.3332 45.2019 36.5555C45.9797 35.7777 52.5352 41.2221 59.9797 48.5555C67.4241 55.9999 72.7574 62.5555 71.9796 63.3332C71.2019 64.111 64.6463 58.7777 57.2019 51.3332Z" fill="url(#paint4_radial_215_43814)"/>
<path d="M58.0907 50.4442C56.7574 49.1109 55.7574 47.7775 56.0907 47.4442C56.313 47.222 57.6463 48.1108 59.0907 49.4442C60.4241 50.7775 61.4241 52.1109 61.0907 52.4442C60.8685 52.7775 59.5352 51.7775 58.0907 50.4442Z" fill="url(#paint5_radial_215_43814)"/>
<path d="M60.0907 51.5553C52.8685 58.7775 46.3129 63.9998 45.4241 63.1109C44.5352 62.222 49.7574 55.6664 56.9796 48.4442C64.2018 41.222 70.7574 35.9998 71.6463 36.8887C72.5352 37.6664 67.4241 44.222 60.0907 51.5553Z" fill="url(#paint6_radial_215_43814)"/>
<path d="M59.0907 50.5555C57.7574 51.8888 56.3129 52.7777 56.0907 52.5555C55.7574 52.2222 56.6463 50.8888 58.0907 49.5555C59.424 48.2222 60.8685 47.3333 61.0907 47.5555C61.4241 47.7777 60.5352 49.1111 59.0907 50.5555Z" fill="url(#paint7_radial_215_43814)"/>
<g opacity="0.5">
<path d="M57.2019 51.3332C49.7574 43.8888 44.4241 37.3332 45.2019 36.5555C45.9797 35.7777 52.5352 41.2221 59.9797 48.5555C67.4241 55.9999 72.7574 62.5555 71.9796 63.3332C71.2019 64.111 64.6463 58.7777 57.2019 51.3332Z" fill="url(#paint8_radial_215_43814)"/>
<path d="M58.0907 50.4442C56.7574 49.1109 55.7574 47.7775 56.0907 47.4442C56.313 47.222 57.6463 48.1108 59.0907 49.4442C60.4241 50.7775 61.4241 52.1109 61.0907 52.4442C60.8685 52.7775 59.5352 51.7775 58.0907 50.4442Z" fill="url(#paint9_radial_215_43814)"/>
<path d="M60.0907 51.5553C52.8685 58.7775 46.3129 63.9998 45.4241 63.1109C44.5352 62.222 49.7574 55.6664 56.9796 48.4442C64.2018 41.222 70.7574 35.9998 71.6463 36.8887C72.5352 37.6664 67.4241 44.222 60.0907 51.5553Z" fill="url(#paint10_radial_215_43814)"/>
<path d="M59.0907 50.5555C57.7574 51.8888 56.3129 52.7777 56.0907 52.5555C55.7574 52.2222 56.6463 50.8888 58.0907 49.5555C59.424 48.2222 60.8685 47.3333 61.0907 47.5555C61.4241 47.7777 60.5352 49.1111 59.0907 50.5555Z" fill="url(#paint11_radial_215_43814)"/>
</g>
</g>
<g opacity="0.5">
<path d="M122.535 154.778C114.535 148 108.646 141.889 109.313 141C109.98 140.222 117.091 145 125.091 151.778C133.091 158.555 138.98 164.667 138.313 165.555C137.646 166.333 130.535 161.444 122.535 154.778Z" fill="url(#paint12_radial_215_43814)"/>
<path d="M123.424 153.778C121.98 152.555 120.869 151.222 121.202 151C121.424 150.666 122.869 151.555 124.313 152.778C125.758 154 126.869 155.333 126.535 155.555C126.313 155.778 124.869 155 123.424 153.778Z" fill="url(#paint13_radial_215_43814)"/>
<path d="M125.424 154.667C118.757 162.445 112.646 168.222 111.757 167.445C110.869 166.667 115.424 159.667 122.091 151.889C128.757 144.111 134.869 138.333 135.757 139.111C136.757 139.889 132.091 146.778 125.424 154.667Z" fill="url(#paint14_radial_215_43814)"/>
<path d="M124.424 153.778C123.202 155.222 121.869 156.222 121.535 156C121.202 155.778 121.98 154.334 123.202 152.778C124.424 151.334 125.757 150.334 126.091 150.556C126.424 150.778 125.646 152.222 124.424 153.778Z" fill="url(#paint15_radial_215_43814)"/>
<g opacity="0.5">
<path d="M122.535 154.778C114.535 148 108.646 141.889 109.313 141C109.98 140.222 117.091 145 125.091 151.778C133.091 158.555 138.98 164.667 138.313 165.555C137.646 166.333 130.535 161.444 122.535 154.778Z" fill="url(#paint16_radial_215_43814)"/>
<path d="M123.424 153.778C121.98 152.555 120.869 151.222 121.202 151C121.424 150.666 122.869 151.555 124.313 152.778C125.758 154 126.869 155.333 126.535 155.555C126.313 155.778 124.869 155 123.424 153.778Z" fill="url(#paint17_radial_215_43814)"/>
<path d="M125.424 154.667C118.757 162.445 112.646 168.222 111.757 167.445C110.869 166.667 115.424 159.667 122.091 151.889C128.757 144.111 134.869 138.333 135.757 139.111C136.757 139.889 132.091 146.778 125.424 154.667Z" fill="url(#paint18_radial_215_43814)"/>
<path d="M124.424 153.778C123.202 155.222 121.869 156.222 121.535 156C121.202 155.778 121.98 154.334 123.202 152.778C124.424 151.334 125.757 150.334 126.091 150.556C126.424 150.778 125.646 152.222 124.424 153.778Z" fill="url(#paint19_radial_215_43814)"/>
</g>
</g>
<defs>
<filter id="filter0_f_215_43814" x="0" y="45" width="150.591" height="168.333" filterUnits="userSpaceOnUse" color-interpolation-filters="sRGB">
<feFlood flood-opacity="0" result="BackgroundImageFix"/>
<feBlend mode="normal" in="SourceGraphic" in2="BackgroundImageFix" result="shape"/>
<feGaussianBlur stdDeviation="10" result="effect1_foregroundBlur_215_43814"/>
</filter>
<filter id="filter1_bi_215_43814" x="19.8889" y="31.167" width="144.591" height="162.477" filterUnits="userSpaceOnUse" color-interpolation-filters="sRGB">
<feFlood flood-opacity="0" result="BackgroundImageFix"/>
<feGaussianBlur in="BackgroundImageFix" stdDeviation="8"/>
<feComposite in2="SourceAlpha" operator="in" result="effect1_backgroundBlur_215_43814"/>
<feBlend mode="normal" in="SourceGraphic" in2="effect1_backgroundBlur_215_43814" result="shape"/>
<feColorMatrix in="SourceAlpha" type="matrix" values="0 0 0 0 0 0 0 0 0 0 0 0 0 0 0 0 0 0 127 0" result="hardAlpha"/>
<feOffset dy="4"/>
<feGaussianBlur stdDeviation="2"/>
<feComposite in2="hardAlpha" operator="arithmetic" k2="-1" k3="1"/>
<feColorMatrix type="matrix" values="0 0 0 0 1 0 0 0 0 1 0 0 0 0 1 0 0 0 0.4 0"/>
<feBlend mode="normal" in2="shape" result="effect2_innerShadow_215_43814"/>
</filter>
<linearGradient id="paint0_linear_215_43814" x1="137.98" y1="23.3335" x2="137.98" y2="105.778" gradientUnits="userSpaceOnUse">
<stop stop-color="#A1EEC3"/>
<stop offset="1" stop-color="#43CC81"/>
</linearGradient>
<linearGradient id="paint1_linear_215_43814" x1="92.217" y1="48.1535" x2="92.217" y2="176.541" gradientUnits="userSpaceOnUse">
<stop stop-color="white" stop-opacity="0.9"/>
<stop offset="0.0433788" stop-color="white" stop-opacity="0.8619"/>
<stop offset="0.455" stop-color="white" stop-opacity="0.5"/>
<stop offset="0.8175" stop-color="#F4F4F4" stop-opacity="0.2074"/>
<stop offset="0.9505" stop-color="#EFEFEF" stop-opacity="0.1"/>
</linearGradient>
<linearGradient id="paint2_linear_215_43814" x1="29.2242" y1="18.3772" x2="204.925" y2="146.066" gradientUnits="userSpaceOnUse">
<stop stop-color="white"/>
<stop offset="1" stop-color="white" stop-opacity="0"/>
</linearGradient>
<linearGradient id="paint3_linear_215_43814" x1="92.1754" y1="54.7164" x2="92.1754" y2="169.653" gradientUnits="userSpaceOnUse">
<stop stop-color="white" stop-opacity="0.9"/>
<stop offset="0.0433788" stop-color="white" stop-opacity="0.8619"/>
<stop offset="0.455" stop-color="white" stop-opacity="0.5"/>
<stop offset="0.8175" stop-color="#F4F4F4" stop-opacity="0.2074"/>
<stop offset="0.9505" stop-color="#EFEFEF" stop-opacity="0.1"/>
</linearGradient>
<radialGradient id="paint4_radial_215_43814" cx="0" cy="0" r="1" gradientUnits="userSpaceOnUse" gradientTransform="translate(58.5966 49.974) rotate(135) scale(1.93173 18.9683)">
<stop stop-color="white"/>
<stop offset="0.0700966" stop-color="white" stop-opacity="0.9299"/>
<stop offset="1" stop-color="white" stop-opacity="0"/>
</radialGradient>
<radialGradient id="paint5_radial_215_43814" cx="0" cy="0" r="1" gradientUnits="userSpaceOnUse" gradientTransform="translate(58.5967 49.9734) rotate(135) scale(0.66952 3.54886)">
<stop stop-color="white"/>
<stop offset="0.0700966" stop-color="white" stop-opacity="0.9299"/>
<stop offset="1" stop-color="white" stop-opacity="0"/>
</radialGradient>
<radialGradient id="paint6_radial_215_43814" cx="0" cy="0" r="1" gradientUnits="userSpaceOnUse" gradientTransform="translate(58.5968 49.9736) rotate(45) scale(2.15946 18.569)">
<stop stop-color="white"/>
<stop offset="0.0700966" stop-color="white" stop-opacity="0.9299"/>
<stop offset="1" stop-color="white" stop-opacity="0"/>
</radialGradient>
<radialGradient id="paint7_radial_215_43814" cx="0" cy="0" r="1" gradientUnits="userSpaceOnUse" gradientTransform="translate(58.5969 49.9736) rotate(45) scale(0.748457 3.54952)">
<stop stop-color="white"/>
<stop offset="0.0700966" stop-color="white" stop-opacity="0.9299"/>
<stop offset="1" stop-color="white" stop-opacity="0"/>
</radialGradient>
<radialGradient id="paint8_radial_215_43814" cx="0" cy="0" r="1" gradientUnits="userSpaceOnUse" gradientTransform="translate(58.5966 49.974) rotate(135) scale(1.93173 18.9683)">
<stop stop-color="white"/>
<stop offset="0.0700966" stop-color="white" stop-opacity="0.9299"/>
<stop offset="1" stop-color="white" stop-opacity="0"/>
</radialGradient>
<radialGradient id="paint9_radial_215_43814" cx="0" cy="0" r="1" gradientUnits="userSpaceOnUse" gradientTransform="translate(58.5967 49.9734) rotate(135) scale(0.66952 3.54886)">
<stop stop-color="white"/>
<stop offset="0.0700966" stop-color="white" stop-opacity="0.9299"/>
<stop offset="1" stop-color="white" stop-opacity="0"/>
</radialGradient>
<radialGradient id="paint10_radial_215_43814" cx="0" cy="0" r="1" gradientUnits="userSpaceOnUse" gradientTransform="translate(58.5968 49.9736) rotate(45) scale(2.15946 18.569)">
<stop stop-color="white"/>
<stop offset="0.0700966" stop-color="white" stop-opacity="0.9299"/>
<stop offset="1" stop-color="white" stop-opacity="0"/>
</radialGradient>
<radialGradient id="paint11_radial_215_43814" cx="0" cy="0" r="1" gradientUnits="userSpaceOnUse" gradientTransform="translate(58.5969 49.9736) rotate(45) scale(0.748457 3.54952)">
<stop stop-color="white"/>
<stop offset="0.0700966" stop-color="white" stop-opacity="0.9299"/>
<stop offset="1" stop-color="white" stop-opacity="0"/>
</radialGradient>
<radialGradient id="paint12_radial_215_43814" cx="0" cy="0" r="1" gradientUnits="userSpaceOnUse" gradientTransform="translate(123.827 153.256) rotate(130.226) scale(1.93142 18.971)">
<stop stop-color="white"/>
<stop offset="0.0700966" stop-color="white" stop-opacity="0.9299"/>
<stop offset="1" stop-color="white" stop-opacity="0"/>
</radialGradient>
<radialGradient id="paint13_radial_215_43814" cx="0" cy="0" r="1" gradientUnits="userSpaceOnUse" gradientTransform="translate(123.827 153.256) rotate(130.226) scale(0.669395 3.54939)">
<stop stop-color="white"/>
<stop offset="0.0700966" stop-color="white" stop-opacity="0.9299"/>
<stop offset="1" stop-color="white" stop-opacity="0"/>
</radialGradient>
<radialGradient id="paint14_radial_215_43814" cx="0" cy="0" r="1" gradientUnits="userSpaceOnUse" gradientTransform="translate(123.828 153.256) rotate(40.23) scale(2.15958 18.5677)">
<stop stop-color="white"/>
<stop offset="0.0700966" stop-color="white" stop-opacity="0.9299"/>
<stop offset="1" stop-color="white" stop-opacity="0"/>
</radialGradient>
<radialGradient id="paint15_radial_215_43814" cx="0" cy="0" r="1" gradientUnits="userSpaceOnUse" gradientTransform="translate(123.828 153.256) rotate(40.2299) scale(0.748469 3.54939)">
<stop stop-color="white"/>
<stop offset="0.0700966" stop-color="white" stop-opacity="0.9299"/>
<stop offset="1" stop-color="white" stop-opacity="0"/>
</radialGradient>
<radialGradient id="paint16_radial_215_43814" cx="0" cy="0" r="1" gradientUnits="userSpaceOnUse" gradientTransform="translate(123.827 153.256) rotate(130.226) scale(1.93142 18.971)">
<stop stop-color="white"/>
<stop offset="0.0700966" stop-color="white" stop-opacity="0.9299"/>
<stop offset="1" stop-color="white" stop-opacity="0"/>
</radialGradient>
<radialGradient id="paint17_radial_215_43814" cx="0" cy="0" r="1" gradientUnits="userSpaceOnUse" gradientTransform="translate(123.827 153.256) rotate(130.226) scale(0.669395 3.54939)">
<stop stop-color="white"/>
<stop offset="0.0700966" stop-color="white" stop-opacity="0.9299"/>
<stop offset="1" stop-color="white" stop-opacity="0"/>
</radialGradient>
<radialGradient id="paint18_radial_215_43814" cx="0" cy="0" r="1" gradientUnits="userSpaceOnUse" gradientTransform="translate(123.828 153.256) rotate(40.23) scale(2.15958 18.5677)">
<stop stop-color="white"/>
<stop offset="0.0700966" stop-color="white" stop-opacity="0.9299"/>
<stop offset="1" stop-color="white" stop-opacity="0"/>
</radialGradient>
<radialGradient id="paint19_radial_215_43814" cx="0" cy="0" r="1" gradientUnits="userSpaceOnUse" gradientTransform="translate(123.828 153.256) rotate(40.2299) scale(0.748469 3.54939)">
<stop stop-color="white"/>
<stop offset="0.0700966" stop-color="white" stop-opacity="0.9299"/>
<stop offset="1" stop-color="white" stop-opacity="0"/>
</radialGradient>
</defs>
</svg>
